<svg width="64" height="40" viewBox="0 0 64 40" fill="none" xmlns="http://www.w3.org/2000/svg">
<rect width="64" height="40" rx="20" fill="#010101"/>
<path d="M39.8422 25.2456C39.3736 26.8358 37.9026 28 36.1626 28H27.8379C25.7215 28 24 26.2785 24 24.1621V15.8379C24 13.7215 25.7215 12 27.8379 12H36.1626C37.9026 12 39.3736 13.1642 39.8422 14.7544H28.5363C27.4251 14.7544 26.5212 15.6583 26.5212 16.7695V23.2311C26.5212 24.3423 27.4251 25.2462 28.5363 25.2462H39.8422V25.2456ZM40.0035 15.9064V24.0936H28.5346C28.0625 24.0936 27.671 23.7078 27.671 23.2299V16.7701C27.671 16.2922 28.0625 15.9064 28.5346 15.9064H40.0035ZM38.8117 17.8928H33.2269C32.1791 17.8928 31.3327 18.9003 31.3327 19.9252C31.3327 20.9557 32.1791 22.1072 33.2269 22.1072H38.8117V17.8928ZM34.7365 19.0759C34.2253 18.5664 33.3996 18.5664 32.8901 19.0759C32.3783 19.5878 32.3783 20.4151 32.8901 20.9229C33.3996 21.4342 34.2247 21.4342 34.7365 20.9229C35.2461 20.4151 35.2461 19.5872 34.7365 19.0759Z" fill="#F4F4F4"/>
</svg>
